<svg xmlns="http://www.w3.org/2000/svg" width="135" height="45" fill="none" viewBox="0 0 135 45">
  <g clip-path="url(#a)">
    <path fill="#000" d="M124.25 0H9.52L8.48.02c-.75 0-1.5.07-2.26.2a7.53 7.53 0 0 0-3.97 2.03A7.04 7.04 0 0 0 .22 6.2c-.13.75-.2 1.5-.2 2.25L0 9.5v26c0 .35 0 .7.02 1.04 0 .76.07 1.5.2 2.25a7.4 7.4 0 0 0 2.03 3.96 7.57 7.57 0 0 0 3.97 2.04c.75.12 1.5.19 2.26.2a47.39 47.39 0 0 0 2.28.01h114.71l1.04-.01c.76-.01 1.51-.08 2.26-.2a7.68 7.68 0 0 0 2.15-.71 7.07 7.07 0 0 0 3.16-3.14c.34-.68.57-1.4.7-2.15.12-.74.2-1.5.2-2.25l.01-1.04.01-1.23V9.5l-.01-1.04c-.02-.75-.09-1.5-.21-2.25a7.28 7.28 0 0 0-6-6c-.76-.12-1.51-.19-2.27-.2h-1.04L124.25 0Z"/>
    <path fill="#fff" d="M9.53 44.02c-.35 0-.68 0-1.02-.02-.71 0-1.41-.07-2.11-.18a6.65 6.65 0 0 1-1.87-.62 6.1 6.1 0 0 1-2.73-2.7c-.3-.59-.5-1.22-.61-1.87-.12-.7-.18-1.4-.19-2.1L.98 35.5v-26l.02-1c.01-.71.07-1.42.19-2.11a6.46 6.46 0 0 1 1.76-3.45 6.28 6.28 0 0 1 3.44-1.76c.7-.11 1.41-.17 2.12-.18L9.53.98h115.94l1.03.02c.7 0 1.4.07 2.1.18a6.3 6.3 0 0 1 5.21 5.2 14.67 14.67 0 0 1 .2 3.12v27.03c-.02.7-.09 1.4-.2 2.08a6.18 6.18 0 0 1-3.33 4.59c-.6.3-1.23.5-1.89.62-.7.11-1.4.17-2.1.18l-1.02.02H9.53Z"/>
    <path fill="#000" d="M28.2 22.38a5.78 5.78 0 0 1 2.76-4.86 5.94 5.94 0 0 0-4.68-2.53c-1.97-.2-3.88 1.18-4.88 1.18-1.02 0-2.57-1.16-4.23-1.12a6.25 6.25 0 0 0-5.25 3.19c-2.27 3.92-.58 9.67 1.6 12.84 1.08 1.55 2.35 3.28 4.02 3.22 1.62-.07 2.23-1.03 4.2-1.03 1.94 0 2.51 1.03 4.2 1 1.75-.04 2.85-1.56 3.9-3.13a12.8 12.8 0 0 0 1.78-3.62 5.6 5.6 0 0 1-3.42-5.14ZM25 12.91a5.69 5.69 0 0 0 1.3-4.08c-1.45.15-2.8.84-3.76 1.94a5.42 5.42 0 0 0-1.34 3.93 4.82 4.82 0 0 0 3.8-1.79Zm22.72 17.62h-5.34l-1.28 3.78h-2.26l5.06-13.97h2.35L51.3 34.3H49l-1.28-3.78Zm-4.78-1.74h4.23l-2.09-6.13h-.06l-2.08 6.13Zm19.29.43c0 3.16-1.7 5.2-4.26 5.2a3.47 3.47 0 0 1-3.22-1.79h-.05v5.05h-2.1V24.12h2.04v1.7h.03a3.62 3.62 0 0 1 3.26-1.8c2.59 0 4.3 2.04 4.3 5.2Zm-2.16 0c0-2.07-1.07-3.42-2.7-3.42-1.6 0-2.68 1.38-2.68 3.42 0 2.05 1.08 3.42 2.68 3.42 1.63 0 2.7-1.34 2.7-3.42Zm13.4 0c0 3.16-1.7 5.2-4.26 5.2a3.47 3.47 0 0 1-3.22-1.79h-.04v5.05h-2.1V24.12h2.03v1.7h.04a3.62 3.62 0 0 1 3.25-1.8c2.6 0 4.3 2.04 4.3 5.2Zm-2.15 0c0-2.07-1.07-3.42-2.7-3.42-1.6 0-2.68 1.38-2.68 3.42 0 2.05 1.07 3.42 2.68 3.42 1.63 0 2.7-1.34 2.7-3.42Zm9.58 1.2c.16 1.38 1.5 2.3 3.35 2.3 1.77 0 3.04-.92 3.04-2.17 0-1.08-.77-1.73-2.59-2.18l-1.81-.43c-2.57-.62-3.77-1.82-3.77-3.77 0-2.4 2.1-4.06 5.1-4.06 2.96 0 4.99 1.65 5.06 4.06h-2.12c-.12-1.4-1.28-2.23-2.97-2.23-1.69 0-2.84.85-2.84 2.09 0 .98.73 1.57 2.54 2.01l1.54.38c2.88.68 4.07 1.83 4.07 3.87 0 2.61-2.09 4.25-5.4 4.25-3.11 0-5.21-1.6-5.35-4.12h2.15Zm13.13-8.71v2.41h1.94v1.66h-1.94v5.61c0 .88.39 1.28 1.24 1.28.23 0 .46-.02.69-.05v1.65c-.38.07-.77.1-1.16.1-2.07 0-2.88-.78-2.88-2.75v-5.84h-1.48v-1.66h1.48v-2.4h2.1Zm3.07 7.51c0-3.2 1.89-5.22 4.84-5.22 2.96 0 4.84 2.01 4.84 5.22s-1.87 5.22-4.84 5.22c-2.97 0-4.85-2.01-4.85-5.22Zm7.55 0c0-2.2-1.01-3.5-2.71-3.5s-2.71 1.3-2.71 3.5 1 3.5 2.7 3.5c1.7 0 2.72-1.3 2.72-3.5Zm3.86-5.1h2v1.74h.05a2.43 2.43 0 0 1 2.46-1.84c.24 0 .48.02.72.07v1.96a2.8 2.8 0 0 0-.95-.13 2.12 2.12 0 0 0-2.18 2.35v6.04h-2.1V24.12Zm14.89 7.2c-.28 1.85-2.09 3.12-4.4 3.12-2.97 0-4.81-1.99-4.81-5.18 0-3.19 1.85-5.26 4.73-5.26 2.82 0 4.6 1.93 4.6 5.02v.72h-7.22v.12a2.66 2.66 0 0 0 2.75 2.89 2.32 2.32 0 0 0 2.36-1.43h2Zm-7.09-3.04h5.11a2.44 2.44 0 0 0-2.5-2.59 2.59 2.59 0 0 0-2.6 2.59ZM40.24 16.53v-6.7h2.7c1.27 0 2.03.63 2.03 1.67a1.47 1.47 0 0 1-1.18 1.44v.08a1.6 1.6 0 0 1 1.52 1.61c0 1.18-.86 1.9-2.3 1.9h-2.77Zm1.05-3.87h1.24c.92 0 1.4-.34 1.4-.97 0-.62-.45-.98-1.22-.98h-1.42v1.95Zm1.51 3c.94 0 1.44-.4 1.44-1.1 0-.7-.52-1.07-1.5-1.07h-1.45v2.16h1.51Zm3.58-.56c0-.9.68-1.44 1.9-1.51l1.37-.08v-.44c0-.53-.36-.83-1.04-.83-.56 0-.95.2-1.06.56h-.97c.1-.87.92-1.43 2.08-1.43 1.27 0 1.99.63 1.99 1.7v3.47h-.97v-.72h-.08a1.7 1.7 0 0 1-1.52.8 1.54 1.54 0 0 1-1.7-1.52Zm3.27-.43v-.42l-1.24.08c-.7.04-1.02.28-1.02.73 0 .45.4.72.94.72a1.2 1.2 0 0 0 1.32-1.11Zm2.44-4.7a.65.65 0 0 1 .75-.68.65.65 0 0 1 .5.88.65.65 0 0 1-.6.41.62.62 0 0 1-.65-.6Zm.14 1.5h1v5.07h-1v-5.07Zm4.44 3.27-1.1 1.8h-1.1L56.14 14l-1.7-2.54h1.17l1.1 1.79h.07l1.08-1.8H59l-1.68 2.51 1.7 2.56h-1.15l-1.11-1.8h-.08Zm3.23.36c0-.9.67-1.44 1.88-1.51l1.38-.08v-.44c0-.53-.36-.83-1.04-.83-.56 0-.95.2-1.06.56h-.97c.1-.87.92-1.43 2.07-1.43 1.28 0 2 .63 2 1.7v3.47h-.97v-.72h-.08a1.7 1.7 0 0 1-1.53.8 1.54 1.54 0 0 1-1.69-1.52Zm3.26-.43v-.42l-1.24.08c-.7.04-1.02.28-1.02.73 0 .45.4.72.94.72a1.2 1.2 0 0 0 1.32-1.11Zm2.57-3.2h.96v.78h.08a1.37 1.37 0 0 1 1.37-.86c.15 0 .3 0 .44.04v.98a2.76 2.76 0 0 0-.56-.06 1.2 1.2 0 0 0-1.3 1.2v2.99h-1v-5.07Zm6.72 0h.96v.8h.08a1.52 1.52 0 0 1 1.51-.9 1.66 1.66 0 0 1 1.76 1.89v3.28h-1V13.5c0-.82-.35-1.22-1.1-1.22a1.17 1.17 0 0 0-1.2 1.28v2.97h-1.01v-5.07Zm5.57 3.63c0-.9.69-1.44 1.9-1.51l1.37-.08v-.44c0-.53-.35-.83-1.04-.83-.56 0-.95.2-1.06.56h-.97c.1-.87.92-1.43 2.08-1.43 1.27 0 1.99.63 1.99 1.7v3.47h-.97v-.72h-.08a1.7 1.7 0 0 1-1.52.8 1.54 1.54 0 0 1-1.7-1.52Zm3.27-.43v-.42l-1.24.08c-.7.04-1.02.28-1.02.73 0 .45.4.72.94.72a1.2 1.2 0 0 0 1.32-1.11Z"/>
  </g>
  <defs>
    <clipPath id="a">
      <path fill="#fff" d="M0 0h135v45H0z"/>
    </clipPath>
  </defs>
</svg>