<svg xmlns="http://www.w3.org/2000/svg" width="135" height="40" fill="none" viewBox="0 0 135 40">
  <path fill="#000" d="M130 0H5a5 5 0 0 0-5 5v30a5 5 0 0 0 5 5h125a5 5 0 0 0 5-5V5a5 5 0 0 0-5-5Z"/>
  <path fill="#A6A6A6" d="M130 .8a4.2 4.2 0 0 1 4.2 4.2v30a4.2 4.2 0 0 1-4.2 4.2H5A4.2 4.2 0 0 1 .8 35V5A4.2 4.2 0 0 1 5 .8h125Zm0-.8H5a5 5 0 0 0-5 5v30a5 5 0 0 0 5 5h125a5 5 0 0 0 5-5V5a5 5 0 0 0-5-5Z"/>
  <path fill="#fff" d="M68.14 21.75A4.26 4.26 0 1 0 72.41 26a4.19 4.19 0 0 0-4.27-4.25Zm0 6.83a2.58 2.58 0 1 1 2.4-2.58 2.46 2.46 0 0 1-2.4 2.58Zm-9.32-6.83A4.26 4.26 0 1 0 63.09 26a4.2 4.2 0 0 0-4.27-4.25Zm0 6.83a2.58 2.58 0 1 1 2.4-2.58 2.46 2.46 0 0 1-2.4 2.58Zm-11.08-5.52v1.8h4.32a3.77 3.77 0 0 1-1 2.27 4.42 4.42 0 0 1-3.34 1.32A4.8 4.8 0 1 1 51 20.14l1.27-1.27a6.3 6.3 0 0 0-4.53-1.82 6.6 6.6 0 1 0 0 13.21 6.07 6.07 0 0 0 4.61-1.85 6 6 0 0 0 1.56-4.23c0-.38-.03-.75-.09-1.12h-6.08Zm45.31 1.4a4 4 0 0 0-3.64-2.71 4 4 0 0 0-4 4.25 4.23 4.23 0 0 0 7.76 2.37l-1.45-1a2.4 2.4 0 0 1-2.09 1.17 2.15 2.15 0 0 1-2.06-1.29l5.69-2.35-.21-.44Zm-5.8 1.42a2.34 2.34 0 0 1 2.23-2.49 1.64 1.64 0 0 1 1.57.91l-3.8 1.58ZM82.63 30h1.87V17.5h-1.87V30Zm-3.06-7.3h-.07a2.94 2.94 0 0 0-2.24-1 4.26 4.26 0 0 0 0 8.51 2.88 2.88 0 0 0 2.24-1h.07v.61c0 1.63-.87 2.5-2.27 2.5a2.36 2.36 0 0 1-2.15-1.51l-1.62.67A4 4 0 0 0 77.3 34c2.19 0 4-1.29 4-4.43V22h-1.73v.7Zm-2.15 5.88a2.58 2.58 0 0 1 0-5.15A2.39 2.39 0 0 1 79.7 26a2.38 2.38 0 0 1-2.28 2.58Zm24.39-11.08h-4.48V30h1.87v-4.74h2.61a3.89 3.89 0 1 0 0-7.76Zm0 6H99.2v-4.26h2.65a2.14 2.14 0 0 1 0 4.28l-.04-.02Zm11.54-1.79a3.49 3.49 0 0 0-3.33 1.91l1.65.69a1.78 1.78 0 0 1 1.71-.91 1.8 1.8 0 0 1 2 1.61v.12a4.18 4.18 0 0 0-1.95-.48c-1.78 0-3.6 1-3.6 2.82a2.9 2.9 0 0 0 3.11 2.75 2.65 2.65 0 0 0 2.38-1.22h.06v1h1.8v-4.81c0-2.19-1.66-3.46-3.79-3.46l-.04-.02Zm-.23 6.85c-.61 0-1.46-.31-1.46-1.06 0-1 1.06-1.34 2-1.34.6-.01 1.18.13 1.7.42a2.26 2.26 0 0 1-2.2 2l-.04-.02ZM123.74 22l-2.14 5.42h-.06L119.32 22h-2l3.33 7.58-1.9 4.21h1.95L125.82 22h-2.08Zm-16.8 8h1.86V17.5h-1.86V30Z"/>
  <path fill="url(#a)" d="M10.44 7.54a2 2 0 0 0-.47 1.4v22.12c-.03.51.13 1.01.47 1.4l.07.08L22.9 20.15v-.3L10.51 7.47l-.07.07Z"/>
  <path fill="url(#b)" d="m27 24.28-4.1-4.13v-.3l4.1-4.13.09.06L32 18.56c1.4.79 1.4 2.09 0 2.89l-4.89 2.78-.11.05Z"/>
  <path fill="url(#c)" d="M27.12 24.22 22.9 20 10.44 32.46a1.62 1.62 0 0 0 2.07.07l14.61-8.31"/>
  <path fill="url(#d)" d="m27.12 15.78-14.61-8.3a1.61 1.61 0 0 0-2.07.06L22.9 20l4.22-4.22Z"/>
  <path fill="#000" d="m27 24.13-14.49 8.25a1.66 1.66 0 0 1-2 0l-.07.07.07.08a1.66 1.66 0 0 0 2 0l14.61-8.31-.12-.09Z" opacity=".2"/>
  <path fill="#000" d="M10.44 32.32a2 2 0 0 1-.44-1.41v.15c-.03.51.13 1.01.47 1.4l.07-.07-.1-.07ZM32 21.3l-5 2.83.09.09L32 21.44A1.75 1.75 0 0 0 33.06 20 1.86 1.86 0 0 1 32 21.3Z" opacity=".12"/>
  <path fill="#fff" d="M12.51 7.62 32 18.7a1.86 1.86 0 0 1 1.06 1.3A1.75 1.75 0 0 0 32 18.56L12.51 7.48c-1.39-.8-2.54-.14-2.54 1.46v.15c.03-1.6 1.15-2.26 2.54-1.47Z" opacity=".25"/>
  <path fill="#fff" stroke="#fff" stroke-miterlimit="10" stroke-width=".2" d="M41.34 13V7h1.83a3 3 0 0 1 2.22.83 3 3 0 0 1 .82 2.17 3 3 0 0 1-.82 2.17 3 3 0 0 1-2.22.83h-1.83Zm.77-.74h1.06A2.08 2.08 0 0 0 45.43 10a2.09 2.09 0 0 0-2.26-2.26h-1.06v4.52Zm5.19.74V7h.77v6h-.77Zm3.83.13c-.46 0-.9-.15-1.27-.42a2 2 0 0 1-.82-1.2l.7-.29c.09.33.27.62.52.84.24.22.55.34.87.34.3.01.61-.09.86-.27a.83.83 0 0 0 .36-.71.92.92 0 0 0-.36-.78 3.7 3.7 0 0 0-1.12-.51 2.87 2.87 0 0 1-1.21-.65 1.35 1.35 0 0 1-.41-1 1.51 1.51 0 0 1 .51-1.13 2.16 2.16 0 0 1 2.57-.09c.29.2.5.5.62.83l-.7.29a1.15 1.15 0 0 0-1.14-.77c-.27 0-.54.08-.76.25a.76.76 0 0 0-.23.94c.05.1.12.18.21.24.26.19.54.33.85.42a3.67 3.67 0 0 1 1.34.63c.2.14.36.33.46.55.11.24.17.5.16.77 0 .27-.06.54-.18.78-.11.22-.28.4-.48.54a2.23 2.23 0 0 1-1.35.4ZM55 13h-.77V7h2.05c.49 0 .96.17 1.32.51a1.75 1.75 0 0 1 0 2.55c-.36.34-.83.52-1.32.51H55V13Zm0-3.17h1.3a1 1 0 0 0 .78-.32 1 1 0 0 0 0-1.45 1 1 0 0 0-.78-.32H55v2.09Zm9 2.39a3.11 3.11 0 0 1-4.4 0 3.24 3.24 0 0 1 0-4.44 3.11 3.11 0 0 1 5.1 1.02c.15.38.23.79.23 1.2a3 3 0 0 1-.93 2.22Zm-3.83-.5a2.22 2.22 0 0 0 1.63.68 2.2 2.2 0 0 0 1.63-.68 2.54 2.54 0 0 0 0-3.44 2.19 2.19 0 0 0-1.63-.68 2.22 2.22 0 0 0-1.63.68 2.57 2.57 0 0 0 0 3.44ZM66 13V7h1l2.91 4.67V7h.77v6h-.8l-3-4.89V13H66Zm6 0V7h.77v6H72Zm.72-6.47h-.67l.44-1.07h.83l-.6 1.07ZM75.64 13l-2.11-6h.85L76 11.87 77.77 7h.85l-2.18 6h-.8ZM83 7.74h-2.74v1.9h2.47v.72h-2.47v1.9H83V13h-3.51V7H83v.74ZM84.2 13V7h.8v5.26h2.6V13h-3.4Zm6.35 0V7h.94l2.92 4.67V7h.77v6h-.8l-3.06-4.89V13h-.77Zm10.91-.78a3.12 3.12 0 0 1-4.4 0 3.24 3.24 0 0 1 0-4.44 2.93 2.93 0 0 1 2.2-.91 3 3 0 0 1 2.86 1.93c.16.38.23.79.22 1.2a3 3 0 0 1-.88 2.22Zm-3.83-.5a2.29 2.29 0 0 0 3.26 0 2.54 2.54 0 0 0 0-3.44 2.29 2.29 0 0 0-3.26 0 2.54 2.54 0 0 0 0 3.44Z"/>
  <defs>
    <linearGradient id="a" x1="21.8" x2="5.02" y1="8.71" y2="25.49" gradientUnits="userSpaceOnUse">
      <stop stop-color="#00A0FF"/>
      <stop offset=".01" stop-color="#00A1FF"/>
      <stop offset=".26" stop-color="#00BEFF"/>
      <stop offset=".51" stop-color="#00D2FF"/>
      <stop offset=".76" stop-color="#00DFFF"/>
      <stop offset="1" stop-color="#00E3FF"/>
    </linearGradient>
    <linearGradient id="b" x1="33.83" x2="9.64" y1="20" y2="20" gradientUnits="userSpaceOnUse">
      <stop stop-color="#FFE000"/>
      <stop offset=".41" stop-color="#FFBD00"/>
      <stop offset=".78" stop-color="orange"/>
      <stop offset="1" stop-color="#FF9C00"/>
    </linearGradient>
    <linearGradient id="c" x1="24.83" x2="2.07" y1="22.3" y2="45.05" gradientUnits="userSpaceOnUse">
      <stop stop-color="#FF3A44"/>
      <stop offset="1" stop-color="#C31162"/>
    </linearGradient>
    <linearGradient id="d" x1="7.3" x2="17.46" y1=".18" y2="10.34" gradientUnits="userSpaceOnUse">
      <stop stop-color="#32A071"/>
      <stop offset=".07" stop-color="#2DA771"/>
      <stop offset=".48" stop-color="#15CF74"/>
      <stop offset=".8" stop-color="#06E775"/>
      <stop offset="1" stop-color="#00F076"/>
    </linearGradient>
  </defs>
</svg>