<svg xmlns="http://www.w3.org/2000/svg" fill="none" viewBox="0 0 233 339">
  <path fill="#F06" fill-rule="evenodd" d="M192.863 59.82c11.752 0 21.278-9.528 21.278-21.281 0-11.754-9.526-21.282-21.278-21.282-11.751 0-21.278 9.528-21.278 21.282 0 11.753 9.527 21.282 21.278 21.282zm3.359-58.445c19.797 0 35.847 16.052 35.847 35.852 0 19.801-16.05 35.854-35.847 35.854s-35.846-16.053-35.846-35.854c0-19.8 16.049-35.852 35.846-35.852z" clip-rule="evenodd"/>
  <path fill="#F06" fill-rule="evenodd" d="M190.873 136.306a4.162 4.162 0 004.161-4.162V68.932h-8.322v63.212a4.162 4.162 0 004.161 4.162z" clip-rule="evenodd"/>
  <path fill="#4D74D5" fill-rule="evenodd" d="M18.29 309.159l-7.778 23.565 71.7-.587-35.263-22.338" clip-rule="evenodd"/>
  <path fill="#F28759" fill-rule="evenodd" d="M46.95 309.799l15.037-33.702-31.84-2.863-12.82 38.889 12.273 6.915 17.35-9.239z" clip-rule="evenodd"/>
  <path fill="#4D74D5" fill-rule="evenodd" d="M68.837 311.258l-2.494 27.377 80.69.186-48.293-28.6-21.088 7.953-8.815-6.916z" clip-rule="evenodd"/>
  <path fill="#F28759" fill-rule="evenodd" d="M98.74 310.221c2.45-7.511 6.938-19.754 8.815-26.623l-33.879-.864-4.666 28.697 8.642 6.742 21.088-7.952z" clip-rule="evenodd"/>
  <path fill="#4D74D5" fill-rule="evenodd" d="M3.154 144.948c-10.187 25.08 6.63 48.393 17.447 61.449 17.795 21.482 22.563 24.247 21.817 29.655l-14.373 43.915 32.322-.172 18.318-41.12-5.009 44.058 33.706 1.038c7.425-27.179 8.37-45.206 9.307-59.595.715-10.958-43.623-45.907-54.593-57.272L3.154 144.948z" clip-rule="evenodd"/>
  <path fill="#F28759" fill-rule="evenodd" d="M74.767 177.936l11.363-63.483s47.914 30.344 98.065.17c12.208-7.345 30.595-1.063 23.631-14.994 0 0 4.798-2.941 1.393-4.334 0 0 6.74-2.391.773-8.36 5.222-4.475.774-11.3-6.964-12.073-1.956-.196-3.629-.706-9.184-.677V84.19l-8.32 1.386V74.304c-1.094.024-1.754.042-1.754.042-15.363 3.663-13.905 10.926-8.311 18.946-41.768 26.77-66.027 1.573-69.162-7.44-.309-3.87 13.93-10.99 24.889-6.668 8.755 3.454 15.28-10.58 13.321-17.241 7.052-1.569 7.052-5.095 3.135-10.189-3.919-5.094-19.59-27.04-24.292-30.566-4.701-3.527-11.923-.242-11.923-.242-12.372 9.8-15.665 20.902-9.511 36.197 0 0-13.438.603-19.965 4.334-51.647 25.515-21.12 104.791-21.238 105.081l14.054 11.378z" clip-rule="evenodd"/>
  <path fill="#88E1EE" fill-rule="evenodd" d="M106.895 88.492s4.154 3.94 8.669 8.522c.051 4.82-1.93 14.764-13.763 27.627-9.01 9.797-39.265-2.465-38.004 43.89-2.959 0-50.31-20.358-60.73-23.512 7.39-17.946 28.192-58.498 78.885-83.542.507-.29.998-.569 1.48-.842 13.65 7.647 21.65 20.034 25.872 28.755-2.115 1.169-2.409-.898-2.409-.898z" clip-rule="evenodd"/>
  <path fill="#7292DA" fill-rule="evenodd" d="M30.637 318.865l-2.421 6.878 39.303.514-19.982-17.045-16.9 9.653zM46.54 280.313l16.023-42.175a5.669 5.669 0 00-.805-5.457c-5.294-6.898-21.192-25.566-22.646-27.021l30.637 23.116c12.355 6.409 9.062 12.251 7.403 18.894l-15.23 32.47-15.383.173z" clip-rule="evenodd"/>
  <path fill="#071663" fill-rule="evenodd" d="M136.428 51.793a.965.965 0 00.96-.876l.147-1.572a.965.965 0 00-1.922-.179l-.147 1.571a.967.967 0 00.962 1.056z" clip-rule="evenodd"/>
  <path fill="#071663" fill-rule="evenodd" d="M105.278 86.665a.963.963 0 00.683-.283c.536-.536 1.066-1.234 1.68-2.043 2.732-3.6 6.474-8.532 15.465-6.18 8.401 2.198 14.539 1.502 18.243-2.067 4.158-4.005 3.995-10.42 3.636-13.457 1.007.047 2.147-.34 3.281-1.15 2.384-1.703 4.245-5.007 2.998-7.776-.711-1.582-2.189-3.09-4.06-4.997-3.276-3.34-7.763-7.916-10.338-15.56a.966.966 0 00-1.83.618c2.717 8.063 7.383 12.82 10.789 16.295 1.737 1.77 3.108 3.168 3.68 4.436.793 1.765-.578 4.138-2.361 5.412-.861.615-2.087 1.126-2.711.541a.965.965 0 00-1.603.913c.019.087 1.875 8.819-2.826 13.34-3.187 3.065-8.709 3.598-16.409 1.584-10.238-2.678-14.78 3.305-17.492 6.88-.572.753-1.065 1.402-1.507 1.846a.964.964 0 00.682 1.648z" clip-rule="evenodd"/>
  <path fill="#071663" fill-rule="evenodd" d="M116.758 62.204a.967.967 0 00.89-.589c.204-.482.443-.764.708-.835.284-.078.978-.045 2.436 1.042a.964.964 0 101.153-1.548c-1.634-1.218-2.974-1.662-4.094-1.358-.867.235-1.533.89-1.981 1.945a.966.966 0 00.888 1.343zM141.172 106.251c19.155 0 34.723-12.46 34.896-12.602a.965.965 0 00.326-.994c-1.359-5.187-1.317-8.338.133-10.218 1.289-1.67 3.824-2.483 7.748-2.483a.965.965 0 000-1.93c-4.562 0-7.597 1.056-9.276 3.233-2.243 2.905-1.635 7.267-.633 11.267-3.107 2.335-20.699 14.694-40.309 11.171-13.535-2.431-25.211-11.814-34.706-27.892a.965.965 0 10-1.662.982c9.796 16.59 21.923 26.284 36.042 28.813 2.521.452 5.012.653 7.441.653z" clip-rule="evenodd"/>
  <path fill="#071663" fill-rule="evenodd" d="M134.108 125.237c18.278.001 36.002-6.092 49.6-12.507 3.049-1.438 12.51-4.882 17.903-4.904 5.496.578 11.216-3.167 11.88-6.546.327-1.663-.593-2.975-2.459-3.508a.965.965 0 00-.531 1.857c1.275.364 1.154.982 1.096 1.279-.401 2.037-4.828 5.544-9.83 4.993a.745.745 0 00-.106-.006c-6.023 0-16.013 3.784-18.777 5.089-20.503 9.672-50.551 18.627-77.272 6.362-15.97-7.332-23.29-18.959-23.363-19.075a.966.966 0 00-1.643 1.014c.304.493 7.639 12.177 24.097 19.767 9.587 4.422 19.578 6.185 29.405 6.185z" clip-rule="evenodd"/>
  <path fill="#071663" fill-rule="evenodd" d="M203.492 103.381c.1 0 .201-.015.302-.048.611-.201 5.976-2.051 6.336-5.205.178-1.556-.838-3.017-3.022-4.34a.966.966 0 00-1 1.652c1.017.617 2.209 1.546 2.104 2.468-.173 1.518-3.458 3.075-5.021 3.59a.965.965 0 00.301 1.883z" clip-rule="evenodd"/>
  <path fill="#071663" fill-rule="evenodd" d="M201.072 96.51a.73.73 0 00.091-.004c4.643-.434 7.805-2.243 8.461-4.837.453-1.794-.423-3.633-2.345-4.917a.965.965 0 00-1.073 1.606c1.231.821 1.795 1.856 1.546 2.838-.328 1.301-2.299 2.969-6.769 3.388a.965.965 0 00.089 1.927z" clip-rule="evenodd"/>
  <path fill="#071663" fill-rule="evenodd" d="M199.622 91.307a.98.98 0 00.167-.015c6.621-1.152 10.272-5.382 9.977-8.806-.109-1.266-1.121-5.394-9.551-5.394a.966.966 0 100 1.93c4.512 0 7.435 1.391 7.628 3.63.215 2.501-2.929 5.789-8.385 6.738a.965.965 0 00.164 1.917z" clip-rule="evenodd"/>
  <path fill="#071663" fill-rule="evenodd" d="M183.991 86.818l.051-.001c.461-.025 11.344-.614 15.902-2.221a.966.966 0 00-.642-1.822c-4.295 1.515-15.251 2.108-15.361 2.113a.967.967 0 00.05 1.93z" clip-rule="evenodd"/>
  <path fill="#071663" fill-rule="evenodd" d="M186.291 86.742a.965.965 0 00.965-.966V74.043a.964.964 0 00-.803-.952c-17.255-2.939-29.779-17.793-29.779-35.32 0-19.762 16.075-35.84 35.833-35.84 19.759 0 35.833 16.078 35.833 35.84 0 18.48-13.842 33.808-32.2 35.656a.965.965 0 00-.869.961v9.887a.966.966 0 001.931 0V75.25c18.915-2.336 33.069-18.298 33.069-37.48C230.271 16.944 213.331 0 192.507 0c-20.823 0-37.764 16.944-37.764 37.77 0 18.2 12.812 33.665 30.583 37.079v10.927c0 .533.432.966.965.966zM191.264 137.214a5.944 5.944 0 005.938-5.939v-22.978a.965.965 0 10-1.931 0v22.978a4.011 4.011 0 01-4.007 4.008 4.011 4.011 0 01-4.007-4.008v-10.196a.966.966 0 00-1.931 0v10.196a5.944 5.944 0 005.938 5.939z" clip-rule="evenodd"/>
  <path fill="#071663" fill-rule="evenodd" d="M192.507 12.732c13.804 0 25.035 11.232 25.035 25.039 0 13.805-11.231 25.037-25.035 25.037s-25.034-11.232-25.034-25.037c0-13.807 11.23-25.04 25.034-25.04zm0 52.008c14.869 0 26.965-12.099 26.965-26.97 0-14.87-12.096-26.97-26.965-26.97s-26.965 12.1-26.965 26.97c0 14.871 12.096 26.97 26.965 26.97zM74.376 178.901a.966.966 0 00.961-.878c.73-8.038 11.333-49.925 11.439-50.347a.966.966 0 00-1.871-.474c-.438 1.73-10.747 42.458-11.491 50.646a.965.965 0 00.962 1.053z" clip-rule="evenodd"/>
  <path fill="#071663" fill-rule="evenodd" d="M65.756 337.902h73.791a.967.967 0 00.524-1.777c-3.955-2.559-38.772-21.421-44.358-24.445 2.711-8.705 24.591-80.178 16.11-93.509-8.414-13.225-45.423-48.59-49.083-52.074-.464-3.165-3.07-27.355 23.262-38.169 8.085-1.322 14.657-3.565 18.516-6.322a.966.966 0 00-1.123-1.571c-3.638 2.6-9.964 4.732-17.812 6.004a1.017 1.017 0 00-.21.06c-29.181 11.912-24.536 40.354-24.486 40.64.036.204.136.39.286.532.404.384 40.481 38.516 49.021 51.937 8.364 13.146-16.312 91.858-16.562 92.652a.967.967 0 00.462 1.14c.357.193 31.481 17.032 41.91 22.971H66.986c11.54-47.418 14.287-90.077 12.501-99.772-.67-3.646-8.55-9.318-22.418-19.029-20.974-14.688-49.7-34.804-53.578-53.267-3.01-14.33 19.915-49.999 48.098-74.833a.965.965 0 10-1.277-1.45c-25.869 22.796-52.236 59.894-48.71 76.68 4.034 19.21 33.121 39.579 54.36 54.452 10.833 7.586 21.066 14.751 21.626 17.798 1.775 9.634-1.047 52.523-12.77 100.156a.965.965 0 00.938 1.196z" clip-rule="evenodd"/>
  <path fill="#071663" fill-rule="evenodd" d="M14.232 332.182h34.312a.966.966 0 000-1.931h-33.11c4.09-17.571 25.325-73.101 31.86-90.02a9.648 9.648 0 00-1.702-9.802c-8.863-10.255-34.922-43.776-40.481-61.055a.967.967 0 00-1.839.592c6.09 18.923 34.222 54.046 40.86 61.726a7.718 7.718 0 011.36 7.843c-6.7 17.346-28.823 75.209-32.205 91.485a.966.966 0 00.945 1.162zM103.369 281.963a.966.966 0 00.028-1.932l-27.035-.783a.965.965 0 00-.056 1.931l27.034.784h.029zM94.554 276.673a.965.965 0 00.935-.732l.339-1.326c5.758-22.441 8.023-38.14 6.732-46.665-2.528-16.688-42.4-43.835-61.562-56.881-3.652-2.486-6.537-4.45-8.245-5.717a.966.966 0 00-1.15 1.552c1.74 1.289 4.638 3.262 8.308 5.761 18.936 12.893 58.338 39.72 60.74 55.574 1.252 8.266-1 23.708-6.694 45.896l-.34 1.337a.967.967 0 00.937 1.201z" clip-rule="evenodd"/>
  <path fill="#071663" fill-rule="evenodd" d="M45.256 175.416c.2 0 .403-.063.577-.193.211-.158 5.167-3.957 4.743-10.74a.97.97 0 00-1.023-.904.966.966 0 00-.904 1.024c.357 5.719-3.8 8.943-3.977 9.077a.967.967 0 00.584 1.736z" clip-rule="evenodd"/>
  <path fill="#071663" fill-rule="evenodd" d="M56.564 167.178a.965.965 0 00.431-1.829c-3.72-1.853-20.772-7.987-33.223-12.464-6.61-2.377-12.858-4.625-13.638-4.995a.966.966 0 00-1.377 1.285c.265.457.265.457 14.361 5.527 12.407 4.462 29.398 10.573 33.016 12.375a.971.971 0 00.43.101zM29.906 320.17c.135 0 .27-.028.397-.085l13.908-6.271a.964.964 0 10-.792-1.76l-13.475 6.074-7.22-3.889a.965.965 0 10-.916 1.701l7.64 4.114c.143.077.3.116.458.116zM142.35 68.22c.72 0 1.411-.106 2.018-.28a.966.966 0 00-.53-1.856c-1.258.36-3.165.338-4.404-.902a.966.966 0 00-1.365 1.366c1.228 1.229 2.814 1.673 4.281 1.673zM77.51 323.109a.956.956 0 00.422-.098l14.497-7.053a.966.966 0 00-.845-1.736l-13.909 6.766-5.98-5.438a.966.966 0 00-1.299 1.429l6.464 5.879a.965.965 0 00.65.251zM67.518 324.285a.965.965 0 00.52-1.78l-20.425-13.052 31.767-63.804a.966.966 0 10-1.728-.86l-32.155 64.58a.965.965 0 00.345 1.244l21.157 13.52c.16.102.341.152.519.152z" clip-rule="evenodd"/>
  <path fill="#2B4595" fill-rule="evenodd" d="M109.833 12.371c16.035-2.117 32.812 10.221 28.014 22.141-3.642 9.045-13.133 7.842-13.133 7.842s3.649 12.147-3.404 12.539c-7.053.391-11.673 3.522-8.146 13.319 3.525 9.797-25.86 9.797-31.344-2.351-2.155 28.41-30.365 35.465-35.262 25.08C41.66 80.556 31.099 79.71 24.42 81.535 10.806 85.26.815 65.665 20.209 58.22c19.394-7.445 43.211 13.785 63.177-23.217 10.432-19.333 18.97-21.644 26.447-22.631z" clip-rule="evenodd"/>
  <path fill="#071663" fill-rule="evenodd" d="M32.257 280.787H55.7a.966.966 0 000-1.931H32.257a.965.965 0 100 1.931z" clip-rule="evenodd"/>
  <path fill="#071663" fill-rule="evenodd" d="M47.537 280.591a.965.965 0 00.908-.637l15.025-41.488a.965.965 0 00-1.815-.658L46.63 279.296a.965.965 0 00.907 1.295zM59.133 98.207c1.72 0 3.467-.272 5.209-.828 9.795-3.13 16.543-13.76 17.549-27.386 4.134 3.653 15.904 11.822 29.878 1.745a.965.965 0 10-1.129-1.566c-15.918 11.478-28.356-2.39-28.877-2.987a.965.965 0 00-1.692.607c-.487 16.787-9.094 25.44-16.317 27.747-6.55 2.093-12.966-.224-17.602-6.356-10.65-14.089-20.166-12.205-20.566-12.118-8.169 1.362-12.03-2.056-13.599-4.215-2.213-3.043-2.531-7.15-.814-10.463 2.465-4.755 7.116-6.932 16.054-7.514 2.743-.18 5.643-.275 8.714-.376 17.41-.572 39.077-1.284 48.687-19.136 6.18-11.478 15.186-18.673 25.361-20.261 8.003-1.25 16.32 1.199 21.703 6.39a.964.964 0 101.34-1.389c-5.897-5.688-14.624-8.27-23.341-6.91-10.785 1.684-20.29 9.232-26.763 21.255-9.084 16.873-29.254 17.536-47.05 18.121-3.087.102-6.002.197-8.778.379-9.709.633-14.82 3.11-17.641 8.552-2.052 3.956-1.672 8.858.967 12.488 3.117 4.287 8.776 6.1 15.524 4.975.129-.025 8.821-1.631 18.662 11.386 3.867 5.115 9.058 7.86 14.52 7.86z" clip-rule="evenodd"/>
  <path fill="#071663" fill-rule="evenodd" d="M119.364 71.207c.423 0 .838-.066 1.241-.199 2.042-.678 3.293-2.941 3.342-6.055a.964.964 0 10-1.93-.03c-.036 2.22-.81 3.85-2.02 4.251-1.2.397-2.443-.478-3.076-1.037-1.237-1.089-2.272-2.76-2.916-4.703-.644-1.944-.811-3.902-.469-5.514.175-.827.648-2.272 1.849-2.67.986-.326 2.231.17 3.418 1.358.197.197.469.3.747.28.16-.01 3.935-.295 5.982-3.468 1.533-2.377 1.648-5.645.345-9.73 3.774-.27 7.96-2.325 10.802-5.386 2.345-2.527 3.444-5.424 3.095-8.158a.964.964 0 10-1.915.244c.275 2.156-.647 4.5-2.595 6.6-2.787 3.002-7.173 4.972-10.688 4.786a.965.965 0 00-.954 1.303c1.528 4.077 1.628 7.199.298 9.277-1.178 1.843-3.243 2.396-4.105 2.55-1.634-1.473-3.449-2.015-5.037-1.488-1.568.52-2.68 1.976-3.131 4.101-.411 1.942-.225 4.257.526 6.523.749 2.264 1.982 4.234 3.471 5.545 1.212 1.067 2.496 1.62 3.72 1.62z" clip-rule="evenodd"/>
</svg>
